<svg width="24" height="25" viewBox="0 0 24 25" fill="none" xmlns="http://www.w3.org/2000/svg">
<path fill-rule="evenodd" clip-rule="evenodd" d="M8.857 3.5H15.143C16.227 3.5 17.101 3.5 17.809 3.558C18.538 3.618 19.178 3.743 19.77 4.045C20.7108 4.52436 21.4756 5.28923 21.955 6.23C22.257 6.822 22.383 7.463 22.442 8.191C22.5 8.899 22.5 9.773 22.5 10.857V14.143C22.5 15.227 22.5 16.101 22.442 16.809C22.382 17.538 22.257 18.178 21.955 18.77C21.4756 19.7108 20.7108 20.4756 19.77 20.955C19.178 21.257 18.538 21.383 17.809 21.442C17.1 21.5 16.227 21.5 15.143 21.5H8.857C7.773 21.5 6.899 21.5 6.191 21.442C5.463 21.382 4.822 21.257 4.231 20.955C3.28986 20.4758 2.52462 19.7109 2.045 18.77C1.743 18.178 1.617 17.538 1.558 16.809C1.5 16.1 1.5 15.227 1.5 14.143V10.857C1.5 9.773 1.5 8.899 1.558 8.191C1.618 7.463 1.743 6.822 2.045 6.231C2.52402 5.28949 3.28893 4.52388 4.23 4.044C4.822 3.742 5.463 3.616 6.191 3.557C6.9 3.5 7.773 3.5 8.857 3.5ZM6.354 5.551C5.749 5.601 5.401 5.693 5.138 5.827C4.57354 6.11462 4.11462 6.57354 3.827 7.138C3.693 7.401 3.601 7.749 3.551 8.354C3.501 8.971 3.5 9.764 3.5 10.9V14.1C3.5 15.237 3.5 16.029 3.551 16.646C3.601 17.251 3.693 17.599 3.827 17.862C4.11462 18.4265 4.57354 18.8854 5.138 19.173C5.401 19.307 5.749 19.399 6.354 19.449C6.971 19.499 7.764 19.5 8.9 19.5H9.5V5.5H8.9C7.763 5.5 6.971 5.5 6.354 5.551ZM11.5 5.5V19.5H15.1C16.237 19.5 17.029 19.5 17.646 19.449C18.251 19.399 18.599 19.307 18.862 19.173C19.4265 18.8854 19.8854 18.4265 20.173 17.862C20.307 17.599 20.399 17.251 20.449 16.646C20.499 16.029 20.5 15.236 20.5 14.1V10.9C20.5 9.763 20.5 8.971 20.449 8.354C20.399 7.749 20.307 7.401 20.173 7.138C19.8854 6.57354 19.4265 6.11462 18.862 5.827C18.599 5.693 18.251 5.601 17.646 5.551C17.029 5.501 16.236 5.5 15.1 5.5H11.5ZM5 9C5 8.73478 5.10536 8.48043 5.29289 8.29289C5.48043 8.10536 5.73478 8 6 8H7C7.26522 8 7.51957 8.10536 7.70711 8.29289C7.89464 8.48043 8 8.73478 8 9C8 9.26522 7.89464 9.51957 7.70711 9.70711C7.51957 9.89464 7.26522 10 7 10H6C5.73478 10 5.48043 9.89464 5.29289 9.70711C5.10536 9.51957 5 9.26522 5 9ZM5 12.5C5 12.2348 5.10536 11.9804 5.29289 11.7929C5.48043 11.6054 5.73478 11.5 6 11.5H7C7.26522 11.5 7.51957 11.6054 7.70711 11.7929C7.89464 11.9804 8 12.2348 8 12.5C8 12.7652 7.89464 13.0196 7.70711 13.2071C7.51957 13.3946 7.26522 13.5 7 13.5H6C5.73478 13.5 5.48043 13.3946 5.29289 13.2071C5.10536 13.0196 5 12.7652 5 12.5Z" fill="#7D7D7D"/>
</svg>
