<svg width="24" height="25" viewBox="0 0 24 25" fill="none" xmlns="http://www.w3.org/2000/svg">
<path d="M15.673 4.413C16.2583 3.82767 17.0522 3.49883 17.88 3.49883C18.2899 3.49883 18.6957 3.57956 19.0744 3.73642C19.4531 3.89327 19.7972 4.12317 20.087 4.413C20.3768 4.70283 20.6067 5.0469 20.7636 5.42558C20.9204 5.80426 21.0012 6.21012 21.0012 6.62C21.0012 7.02988 20.9204 7.43574 20.7636 7.81442C20.6067 8.1931 20.3768 8.53717 20.087 8.827L14.15 14.764C13.3852 15.5292 12.3929 16.0257 11.322 16.179L9.142 16.489C8.9884 16.511 8.83178 16.497 8.68454 16.448C8.5373 16.399 8.40347 16.3165 8.29365 16.2068C8.18383 16.0972 8.10103 15.9635 8.0518 15.8164C8.00257 15.6692 7.98826 15.5126 8.01 15.359L8.321 13.179C8.47409 12.1077 8.97062 11.115 9.736 10.35L15.673 4.413ZM18.673 5.827C18.569 5.72269 18.4454 5.63993 18.3093 5.58346C18.1732 5.52699 18.0273 5.49792 17.88 5.49792C17.7327 5.49792 17.5868 5.52699 17.4507 5.58346C17.3146 5.63993 17.191 5.72269 17.087 5.827L11.15 11.764C10.6908 12.2229 10.3929 12.8184 10.301 13.461L10.178 14.321L11.038 14.199C11.681 14.1073 12.2768 13.8093 12.736 13.35L18.673 7.413C18.7773 7.30896 18.8601 7.18536 18.9165 7.04929C18.973 6.91321 19.0021 6.76733 19.0021 6.62C19.0021 6.47267 18.973 6.32679 18.9165 6.19072C18.8601 6.05464 18.7773 5.93104 18.673 5.827ZM11 4.5C11 4.76522 10.8946 5.01957 10.7071 5.20711C10.5196 5.39465 10.2652 5.5 10 5.5C9.002 5.5 8.298 5.508 7.747 5.56C7.207 5.612 6.885 5.701 6.638 5.827C6.07354 6.11462 5.61462 6.57354 5.327 7.138C5.193 7.401 5.101 7.749 5.051 8.354C5.001 8.971 5 9.764 5 10.9V14.1C5 15.237 5 16.029 5.051 16.646C5.101 17.251 5.193 17.599 5.327 17.862C5.61462 18.4265 6.07354 18.8854 6.638 19.173C6.901 19.307 7.249 19.399 7.854 19.449C8.471 19.499 9.264 19.5 10.4 19.5H13.6C14.737 19.5 15.529 19.5 16.146 19.449C16.751 19.399 17.099 19.307 17.362 19.173C17.9265 18.8854 18.3854 18.4265 18.673 17.862C18.799 17.615 18.888 17.293 18.939 16.754C18.992 16.202 18.999 15.498 18.999 14.499C18.9991 14.3677 19.0251 14.2377 19.0755 14.1164C19.1259 13.9951 19.1996 13.885 19.2926 13.7922C19.3856 13.6994 19.4959 13.6259 19.6172 13.5757C19.7386 13.5256 19.8687 13.4999 20 13.5C20.1313 13.5001 20.2613 13.5261 20.3826 13.5765C20.5039 13.6269 20.614 13.7007 20.7068 13.7936C20.7996 13.8866 20.8731 13.9969 20.9233 14.1182C20.9734 14.2396 20.9991 14.3697 20.999 14.501C20.999 15.479 20.993 16.281 20.93 16.943C20.866 17.616 20.738 18.213 20.455 18.77C19.9756 19.7108 19.2108 20.4756 18.27 20.955C17.678 21.257 17.038 21.383 16.309 21.442C15.6 21.5 14.727 21.5 13.643 21.5H10.357C9.273 21.5 8.399 21.5 7.691 21.442C6.963 21.382 6.322 21.257 5.731 20.955C4.78986 20.4758 4.02462 19.7109 3.545 18.77C3.243 18.178 3.117 17.537 3.058 16.809C3 16.1 3 15.227 3 14.143V10.857C3 9.773 3 8.899 3.058 8.191C3.118 7.462 3.243 6.822 3.545 6.23C4.02436 5.28923 4.78923 4.52436 5.73 4.045C6.286 3.761 6.884 3.634 7.557 3.57C8.22 3.507 9.021 3.5 10 3.5C10.2652 3.5 10.5196 3.60536 10.7071 3.7929C10.8946 3.98043 11 4.23479 11 4.5Z" fill="#7D7D7D"/>
</svg>
