<svg width="24" height="25" viewBox="0 0 24 25" fill="none" xmlns="http://www.w3.org/2000/svg">
<path fill-rule="evenodd" clip-rule="evenodd" d="M8.0625 6.875C7.61495 6.875 7.18572 7.05279 6.86926 7.36926C6.55279 7.68572 6.375 8.11495 6.375 8.5625C6.375 9.01005 6.55279 9.43927 6.86926 9.75574C7.18572 10.0722 7.61495 10.25 8.0625 10.25C8.51005 10.25 8.93927 10.0722 9.25574 9.75574C9.57221 9.43927 9.75 9.01005 9.75 8.5625C9.75 8.11495 9.57221 7.68572 9.25574 7.36926C8.93927 7.05279 8.51005 6.875 8.0625 6.875ZM4.875 8.5625C4.875 7.71712 5.21082 6.90637 5.8086 6.3086C6.40637 5.71082 7.21712 5.375 8.0625 5.375C8.90788 5.375 9.71863 5.71082 10.3164 6.3086C10.9142 6.90637 11.25 7.71712 11.25 8.5625C11.25 9.40788 10.9142 10.2186 10.3164 10.8164C9.71863 11.4142 8.90788 11.75 8.0625 11.75C7.21712 11.75 6.40637 11.4142 5.8086 10.8164C5.21082 10.2186 4.875 9.40788 4.875 8.5625ZM15.9375 6.875C15.4899 6.875 15.0607 7.05279 14.7443 7.36926C14.4278 7.68572 14.25 8.11495 14.25 8.5625C14.25 9.01005 14.4278 9.43927 14.7443 9.75574C15.0607 10.0722 15.4899 10.25 15.9375 10.25C16.3851 10.25 16.8143 10.0722 17.1307 9.75574C17.4472 9.43927 17.625 9.01005 17.625 8.5625C17.625 8.11495 17.4472 7.68572 17.1307 7.36926C16.8143 7.05279 16.3851 6.875 15.9375 6.875ZM12.75 8.5625C12.75 7.71712 13.0858 6.90637 13.6836 6.3086C14.2814 5.71082 15.0921 5.375 15.9375 5.375C16.7829 5.375 17.5936 5.71082 18.1914 6.3086C18.7892 6.90637 19.125 7.71712 19.125 8.5625C19.125 9.40788 18.7892 10.2186 18.1914 10.8164C17.5936 11.4142 16.7829 11.75 15.9375 11.75C15.0921 11.75 14.2814 11.4142 13.6836 10.8164C13.0858 10.2186 12.75 9.40788 12.75 8.5625ZM8.0625 14.75C7.61495 14.75 7.18572 14.9278 6.86926 15.2443C6.55279 15.5607 6.375 15.9899 6.375 16.4375C6.375 16.8851 6.55279 17.3143 6.86926 17.6307C7.18572 17.9472 7.61495 18.125 8.0625 18.125C8.51005 18.125 8.93927 17.9472 9.25574 17.6307C9.57221 17.3143 9.75 16.8851 9.75 16.4375C9.75 15.9899 9.57221 15.5607 9.25574 15.2443C8.93927 14.9278 8.51005 14.75 8.0625 14.75ZM4.875 16.4375C4.875 15.5921 5.21082 14.7814 5.8086 14.1836C6.40637 13.5858 7.21712 13.25 8.0625 13.25C8.90788 13.25 9.71863 13.5858 10.3164 14.1836C10.9142 14.7814 11.25 15.5921 11.25 16.4375C11.25 17.2829 10.9142 18.0936 10.3164 18.6914C9.71863 19.2892 8.90788 19.625 8.0625 19.625C7.21712 19.625 6.40637 19.2892 5.8086 18.6914C5.21082 18.0936 4.875 17.2829 4.875 16.4375ZM15.9375 14.75C15.4899 14.75 15.0607 14.9278 14.7443 15.2443C14.4278 15.5607 14.25 15.9899 14.25 16.4375C14.25 16.8851 14.4278 17.3143 14.7443 17.6307C15.0607 17.9472 15.4899 18.125 15.9375 18.125C16.3851 18.125 16.8143 17.9472 17.1307 17.6307C17.4472 17.3143 17.625 16.8851 17.625 16.4375C17.625 15.9899 17.4472 15.5607 17.1307 15.2443C16.8143 14.9278 16.3851 14.75 15.9375 14.75ZM12.75 16.4375C12.75 15.5921 13.0858 14.7814 13.6836 14.1836C14.2814 13.5858 15.0921 13.25 15.9375 13.25C16.7829 13.25 17.5936 13.5858 18.1914 14.1836C18.7892 14.7814 19.125 15.5921 19.125 16.4375C19.125 17.2829 18.7892 18.0936 18.1914 18.6914C17.5936 19.2892 16.7829 19.625 15.9375 19.625C15.0921 19.625 14.2814 19.2892 13.6836 18.6914C13.0858 18.0936 12.75 17.2829 12.75 16.4375Z" fill="#7D7D7D"/>
</svg>
