<svg width="32" height="33" viewBox="0 0 32 33" fill="none" xmlns="http://www.w3.org/2000/svg">
<rect y="0.5" width="32" height="32" rx="16" fill="#D7D7D7"/>
<path fill-rule="evenodd" clip-rule="evenodd" d="M15.1921 9.40603C15.4064 9.19181 15.697 9.07147 16.0001 9.07147C16.3031 9.07147 16.5937 9.19181 16.8081 9.40603L21.9511 14.549C22.1571 14.765 22.2705 15.053 22.267 15.3515C22.2635 15.6499 22.1434 15.9352 21.9323 16.1463C21.7212 16.3573 21.436 16.4775 21.1375 16.481C20.839 16.4845 20.551 16.3711 20.3351 16.165L17.1431 12.973V22.786C17.1431 23.0892 17.0226 23.3799 16.8083 23.5942C16.5939 23.8086 16.3032 23.929 16.0001 23.929C15.6969 23.929 15.4062 23.8086 15.1918 23.5942C14.9775 23.3799 14.8571 23.0892 14.8571 22.786V12.973L11.6651 16.165C11.5599 16.2753 11.4337 16.3634 11.294 16.4241C11.1543 16.4849 11.0038 16.5171 10.8515 16.5189C10.6991 16.5207 10.548 16.492 10.4069 16.4346C10.2658 16.3771 10.1376 16.292 10.0298 16.1842C9.92211 16.0765 9.837 15.9483 9.77952 15.8072C9.72204 15.6661 9.69336 15.5149 9.69515 15.3626C9.69694 15.2102 9.72917 15.0598 9.78994 14.9201C9.85072 14.7804 9.93882 14.6542 10.0491 14.549L15.1921 9.40603Z" fill="#F4F4F4"/>
</svg>
