<svg width="17" height="17" viewBox="0 0 17 17" fill="none" xmlns="http://www.w3.org/2000/svg">
<path d="M4.36264 3.46261C4.48798 3.06794 5.04531 3.06794 5.17064 3.46261C5.69998 6.43327 6.16664 6.89994 9.13731 7.42927C9.53198 7.55461 9.53198 8.11194 9.13731 8.23727C6.16664 8.76661 5.69998 9.23327 5.17064 12.2039C5.04531 12.5986 4.48798 12.5986 4.36264 12.2039C3.83331 9.23327 3.36664 8.76661 0.395976 8.23727C0.00130892 8.11194 0.00130892 7.55461 0.395976 7.42927C3.36664 6.89994 3.83331 6.43327 4.36264 3.46261ZM10.1733 10.0233C10.1911 9.96834 10.2259 9.92047 10.2726 9.88651C10.3193 9.85256 10.3756 9.83427 10.4333 9.83427C10.4911 9.83427 10.5473 9.85256 10.594 9.88651C10.6407 9.92047 10.6755 9.96834 10.6933 10.0233C11.0333 11.9333 11.3333 12.2333 13.2433 12.5739C13.4966 12.6539 13.4966 13.0126 13.2433 13.0926C11.3333 13.4333 11.0333 13.7333 10.6926 15.6433C10.6752 15.6984 10.6407 15.7465 10.594 15.7807C10.5474 15.8148 10.4911 15.8332 10.4333 15.8332C10.3755 15.8332 10.3192 15.8148 10.2726 15.7807C10.2259 15.7465 10.1914 15.6984 10.174 15.6433C9.83331 13.7333 9.53331 13.4333 7.62331 13.0926C7.5682 13.0752 7.52007 13.0406 7.48592 12.994C7.45176 12.9474 7.43335 12.8911 7.43335 12.8333C7.43335 12.7755 7.45176 12.7192 7.48592 12.6725C7.52007 12.6259 7.5682 12.5914 7.62331 12.5739C9.53331 12.2333 9.83331 11.9333 10.174 10.0233H10.1733ZM11.8113 1.37794C11.8307 1.31654 11.8691 1.26292 11.921 1.22485C11.9729 1.18678 12.0356 1.16626 12.1 1.16626C12.1643 1.16626 12.227 1.18678 12.279 1.22485C12.3309 1.26292 12.3693 1.31654 12.3886 1.37794C12.7666 3.49994 13.1 3.83327 15.222 4.21127C15.2834 4.23062 15.337 4.26905 15.3751 4.32096C15.4131 4.37287 15.4337 4.43557 15.4337 4.49994C15.4337 4.56431 15.4131 4.62701 15.3751 4.67892C15.337 4.73083 15.2834 4.76925 15.222 4.78861C13.1 5.16661 12.7666 5.49994 12.3886 7.62194C12.3693 7.68333 12.3309 7.73696 12.279 7.77503C12.227 7.81309 12.1643 7.83362 12.1 7.83362C12.0356 7.83362 11.9729 7.81309 11.921 7.77503C11.8691 7.73696 11.8307 7.68333 11.8113 7.62194C11.4333 5.49994 11.1 5.16661 8.97798 4.78861C8.91658 4.76925 8.86295 4.73083 8.82489 4.67892C8.78682 4.62701 8.7663 4.56431 8.7663 4.49994C8.7663 4.43557 8.78682 4.37287 8.82489 4.32096C8.86295 4.26905 8.91658 4.23062 8.97798 4.21127C11.1 3.83327 11.4333 3.49994 11.8113 1.37794Z" fill="black"/>
</svg>
